<?xml version="1.0" encoding="UTF-8" standalone="no"?><!-- Generator: Gravit.io --><svg xmlns="http://www.w3.org/2000/svg" xmlns:xlink="http://www.w3.org/1999/xlink" style="isolation:isolate" viewBox="-0.697 29 331 65" width="331pt" height="65pt"><defs><clipPath id="_clipPath_rAx6vaYUGIBB8qWPdOu4EEree48Y7LWT"><rect width="500" height="100"/></clipPath></defs><g clip-path="url(#_clipPath_rAx6vaYUGIBB8qWPdOu4EEree48Y7LWT)"><rect x="0" y="29" width="331" height="65" transform="matrix(1,0,0,1,0,0)" fill="rgb(255,255,255)"/><rect x="15" y="68" width="11" height="11" transform="matrix(1,0,0,1,0,0)" fill="rgb(39,5,87)"/><rect x="15" y="56" width="11" height="11" transform="matrix(1,0,0,1,0,0)" fill="rgb(113,20,242)"/><rect x="15" y="44" width="11" height="11" transform="matrix(1,0,0,1,0,0)" fill="rgb(113,20,242)"/><rect x="27" y="44" width="11" height="11" transform="matrix(1,0,0,1,0,0)" fill="rgb(113,20,242)"/><rect x="39" y="44" width="11" height="11" transform="matrix(1,0,0,1,0,0)" fill="rgb(113,20,242)"/><rect x="39" y="56" width="11" height="11" transform="matrix(1,0,0,1,0,0)" fill="rgb(113,20,242)"/><rect x="56" y="56" width="11" height="11" transform="matrix(1,0,0,1,0,0)" fill="rgb(113,20,242)"/><rect x="56" y="44" width="11" height="11" transform="matrix(1,0,0,1,0,0)" fill="rgb(113,20,242)"/><rect x="66" y="44" width="15" height="7" transform="matrix(1,0,0,1,0,0)" fill="rgb(113,20,242)"/><rect x="66" y="60" width="15" height="7" transform="matrix(1,0,0,1,0,0)" fill="rgb(113,20,242)"/><rect x="80" y="44" width="11" height="11" transform="matrix(1,0,0,1,0,0)" fill="rgb(113,20,242)"/><rect x="80" y="56" width="11" height="11" transform="matrix(1,0,0,1,0,0)" fill="rgb(113,20,242)"/><rect x="97" y="56" width="11" height="11" transform="matrix(1,0,0,1,0,0)" fill="rgb(113,20,242)"/><rect x="97" y="44" width="11" height="11" transform="matrix(1,0,0,1,0,0)" fill="rgb(113,20,242)"/><rect x="107" y="44" width="15" height="7" transform="matrix(1,0,0,1,0,0)" fill="rgb(113,20,242)"/><rect x="107" y="60" width="15" height="7" transform="matrix(1,0,0,1,0,0)" fill="rgb(113,20,242)"/><rect x="121" y="44" width="11" height="11" transform="matrix(1,0,0,1,0,0)" fill="rgb(113,20,242)"/><rect x="121" y="56" width="11" height="11" transform="matrix(1,0,0,1,0,0)" fill="rgb(113,20,242)"/><rect x="39" y="68" width="11" height="11" transform="matrix(1,0,0,1,0,0)" fill="rgb(113,20,242)"/><rect x="138" y="68" width="11" height="11" transform="matrix(1,0,0,1,0,0)" fill="rgb(39,5,87)"/><rect x="150" y="68" width="11" height="11" transform="matrix(1,0,0,1,0,0)" fill="rgb(39,5,87)"/><rect x="138" y="56" width="11" height="11" transform="matrix(1,0,0,1,0,0)" fill="rgb(113,20,242)"/><rect x="138" y="44" width="11" height="11" transform="matrix(1,0,0,1,0,0)" fill="rgb(113,20,242)"/><rect x="150" y="44" width="11" height="11" transform="matrix(1,0,0,1,0,0)" fill="rgb(113,20,242)"/><rect x="162" y="44" width="11" height="11" transform="matrix(1,0,0,1,0,0)" fill="rgb(113,20,242)"/><rect x="162" y="56" width="11" height="11" transform="matrix(1,0,0,1,0,0)" fill="rgb(113,20,242)"/><rect x="162" y="68" width="11" height="11" transform="matrix(1,0,0,1,0,0)" fill="rgb(113,20,242)"/><rect x="278" y="68" width="11" height="11" transform="matrix(1,0,0,1,0,0)" fill="rgb(39,5,87)"/><rect x="290" y="68" width="11" height="11" transform="matrix(1,0,0,1,0,0)" fill="rgb(39,5,87)"/><rect x="278" y="56" width="11" height="11" transform="matrix(1,0,0,1,0,0)" fill="rgb(113,20,242)"/><rect x="278" y="44" width="11" height="11" transform="matrix(1,0,0,1,0,0)" fill="rgb(113,20,242)"/><rect x="290" y="44" width="11" height="11" transform="matrix(1,0,0,1,0,0)" fill="rgb(113,20,242)"/><rect x="302" y="44" width="11" height="11" transform="matrix(1,0,0,1,0,0)" fill="rgb(113,20,242)"/><rect x="302" y="68" width="11" height="11" transform="matrix(1,0,0,1,0,0)" fill="rgb(113,20,242)"/><rect x="179" y="68" width="11" height="11" transform="matrix(1,0,0,1,0,0)" fill="rgb(39,5,87)"/><rect x="191" y="68" width="11" height="11" transform="matrix(1,0,0,1,0,0)" fill="rgb(39,5,87)"/><rect x="203" y="44" width="11" height="11" transform="matrix(1,0,0,1,0,0)" fill="rgb(113,20,242)"/><rect x="191" y="44" width="11" height="11" transform="matrix(1,0,0,1,0,0)" fill="rgb(113,20,242)"/><rect x="191" y="56" width="11" height="11" transform="matrix(1,0,0,1,0,0)" fill="rgb(113,20,242)"/><rect x="261" y="68" width="11" height="11" transform="matrix(1,0,0,1,0,0)" fill="rgb(39,5,87)"/><rect x="261" y="44" width="11" height="11" transform="matrix(1,0,0,1,0,0)" fill="rgb(113,20,242)"/><rect x="261" y="56" width="11" height="11" transform="matrix(1,0,0,1,0,0)" fill="rgb(113,20,242)"/><rect x="56" y="68" width="11" height="11" transform="matrix(1,0,0,1,0,0)" fill="rgb(113,20,242)"/><rect x="80" y="68" width="11" height="11" transform="matrix(1,0,0,1,0,0)" fill="rgb(113,20,242)"/><rect x="220" y="56" width="11" height="11" transform="matrix(1,0,0,1,0,0)" fill="rgb(113,20,242)"/><rect x="220" y="44" width="11" height="11" transform="matrix(1,0,0,1,0,0)" fill="rgb(113,20,242)"/><rect x="230" y="44" width="15" height="7" transform="matrix(1,0,0,1,0,0)" fill="rgb(113,20,242)"/><rect x="230" y="60" width="15" height="7" transform="matrix(1,0,0,1,0,0)" fill="rgb(113,20,242)"/><rect x="244" y="44" width="11" height="11" transform="matrix(1,0,0,1,0,0)" fill="rgb(113,20,242)"/><rect x="244" y="56" width="11" height="11" transform="matrix(1,0,0,1,0,0)" fill="rgb(113,20,242)"/><rect x="220" y="68" width="11" height="11" transform="matrix(1,0,0,1,0,0)" fill="rgb(113,20,242)"/><rect x="244" y="68" width="11" height="11" transform="matrix(1,0,0,1,0,0)" fill="rgb(113,20,242)"/><rect x="97" y="68" width="11" height="11" transform="matrix(1,0,0,1,0,0)" fill="rgb(113,20,242)"/></g></svg>