<?xml version="1.0" encoding="UTF-8" standalone="no"?><!-- Generator: Gravit.io --><svg xmlns="http://www.w3.org/2000/svg" xmlns:xlink="http://www.w3.org/1999/xlink" style="isolation:isolate" viewBox="15 44 298 35" width="298pt" height="35pt"><defs><clipPath id="_clipPath_kWv5Ji9U3NaV5ueyVKJCJMDPywuJE95f"><rect width="500" height="100"/></clipPath></defs><g clip-path="url(#_clipPath_kWv5Ji9U3NaV5ueyVKJCJMDPywuJE95f)"><rect x="15" y="68" width="11" height="11" transform="matrix(1,0,0,1,0,0)" fill="rgb(39,5,87)"/><rect x="15" y="56" width="11" height="11" transform="matrix(1,0,0,1,0,0)" fill="rgb(113,20,242)"/><rect x="15" y="44" width="11" height="11" transform="matrix(1,0,0,1,0,0)" fill="rgb(113,20,242)"/><rect x="27" y="44" width="11" height="11" transform="matrix(1,0,0,1,0,0)" fill="rgb(113,20,242)"/><rect x="39" y="44" width="11" height="11" transform="matrix(1,0,0,1,0,0)" fill="rgb(113,20,242)"/><rect x="39" y="56" width="11" height="11" transform="matrix(1,0,0,1,0,0)" fill="rgb(113,20,242)"/><rect x="56" y="56" width="11" height="11" transform="matrix(1,0,0,1,0,0)" fill="rgb(113,20,242)"/><rect x="56" y="44" width="11" height="11" transform="matrix(1,0,0,1,0,0)" fill="rgb(113,20,242)"/><rect x="66" y="44" width="15" height="7" transform="matrix(1,0,0,1,0,0)" fill="rgb(113,20,242)"/><rect x="66" y="60" width="15" height="7" transform="matrix(1,0,0,1,0,0)" fill="rgb(113,20,242)"/><rect x="80" y="44" width="11" height="11" transform="matrix(1,0,0,1,0,0)" fill="rgb(113,20,242)"/><rect x="80" y="56" width="11" height="11" transform="matrix(1,0,0,1,0,0)" fill="rgb(113,20,242)"/><rect x="97" y="56" width="11" height="11" transform="matrix(1,0,0,1,0,0)" fill="rgb(113,20,242)"/><rect x="97" y="44" width="11" height="11" transform="matrix(1,0,0,1,0,0)" fill="rgb(113,20,242)"/><rect x="107" y="44" width="15" height="7" transform="matrix(1,0,0,1,0,0)" fill="rgb(113,20,242)"/><rect x="107" y="60" width="15" height="7" transform="matrix(1,0,0,1,0,0)" fill="rgb(113,20,242)"/><rect x="121" y="44" width="11" height="11" transform="matrix(1,0,0,1,0,0)" fill="rgb(113,20,242)"/><rect x="121" y="56" width="11" height="11" transform="matrix(1,0,0,1,0,0)" fill="rgb(113,20,242)"/><rect x="39" y="68" width="11" height="11" transform="matrix(1,0,0,1,0,0)" fill="rgb(113,20,242)"/><rect x="138" y="68" width="11" height="11" transform="matrix(1,0,0,1,0,0)" fill="rgb(39,5,87)"/><rect x="150" y="68" width="11" height="11" transform="matrix(1,0,0,1,0,0)" fill="rgb(39,5,87)"/><rect x="138" y="56" width="11" height="11" transform="matrix(1,0,0,1,0,0)" fill="rgb(113,20,242)"/><rect x="138" y="44" width="11" height="11" transform="matrix(1,0,0,1,0,0)" fill="rgb(113,20,242)"/><rect x="150" y="44" width="11" height="11" transform="matrix(1,0,0,1,0,0)" fill="rgb(113,20,242)"/><rect x="162" y="44" width="11" height="11" transform="matrix(1,0,0,1,0,0)" fill="rgb(113,20,242)"/><rect x="162" y="56" width="11" height="11" transform="matrix(1,0,0,1,0,0)" fill="rgb(113,20,242)"/><rect x="162" y="68" width="11" height="11" transform="matrix(1,0,0,1,0,0)" fill="rgb(113,20,242)"/><rect x="278" y="68" width="11" height="11" transform="matrix(1,0,0,1,0,0)" fill="rgb(39,5,87)"/><rect x="290" y="68" width="11" height="11" transform="matrix(1,0,0,1,0,0)" fill="rgb(39,5,87)"/><rect x="278" y="56" width="11" height="11" transform="matrix(1,0,0,1,0,0)" fill="rgb(113,20,242)"/><rect x="278" y="44" width="11" height="11" transform="matrix(1,0,0,1,0,0)" fill="rgb(113,20,242)"/><rect x="290" y="44" width="11" height="11" transform="matrix(1,0,0,1,0,0)" fill="rgb(113,20,242)"/><rect x="302" y="44" width="11" height="11" transform="matrix(1,0,0,1,0,0)" fill="rgb(113,20,242)"/><rect x="302" y="68" width="11" height="11" transform="matrix(1,0,0,1,0,0)" fill="rgb(113,20,242)"/><rect x="179" y="68" width="11" height="11" transform="matrix(1,0,0,1,0,0)" fill="rgb(39,5,87)"/><rect x="191" y="68" width="11" height="11" transform="matrix(1,0,0,1,0,0)" fill="rgb(39,5,87)"/><rect x="203" y="44" width="11" height="11" transform="matrix(1,0,0,1,0,0)" fill="rgb(113,20,242)"/><rect x="191" y="44" width="11" height="11" transform="matrix(1,0,0,1,0,0)" fill="rgb(113,20,242)"/><rect x="191" y="56" width="11" height="11" transform="matrix(1,0,0,1,0,0)" fill="rgb(113,20,242)"/><rect x="261" y="68" width="11" height="11" transform="matrix(1,0,0,1,0,0)" fill="rgb(39,5,87)"/><rect x="261" y="44" width="11" height="11" transform="matrix(1,0,0,1,0,0)" fill="rgb(113,20,242)"/><rect x="261" y="56" width="11" height="11" transform="matrix(1,0,0,1,0,0)" fill="rgb(113,20,242)"/><rect x="56" y="68" width="11" height="11" transform="matrix(1,0,0,1,0,0)" fill="rgb(113,20,242)"/><rect x="80" y="68" width="11" height="11" transform="matrix(1,0,0,1,0,0)" fill="rgb(113,20,242)"/><rect x="220" y="56" width="11" height="11" transform="matrix(1,0,0,1,0,0)" fill="rgb(113,20,242)"/><rect x="220" y="44" width="11" height="11" transform="matrix(1,0,0,1,0,0)" fill="rgb(113,20,242)"/><rect x="230" y="44" width="15" height="7" transform="matrix(1,0,0,1,0,0)" fill="rgb(113,20,242)"/><rect x="230" y="60" width="15" height="7" transform="matrix(1,0,0,1,0,0)" fill="rgb(113,20,242)"/><rect x="244" y="44" width="11" height="11" transform="matrix(1,0,0,1,0,0)" fill="rgb(113,20,242)"/><rect x="244" y="56" width="11" height="11" transform="matrix(1,0,0,1,0,0)" fill="rgb(113,20,242)"/><rect x="220" y="68" width="11" height="11" transform="matrix(1,0,0,1,0,0)" fill="rgb(113,20,242)"/><rect x="244" y="68" width="11" height="11" transform="matrix(1,0,0,1,0,0)" fill="rgb(113,20,242)"/><rect x="97" y="68" width="11" height="11" transform="matrix(1,0,0,1,0,0)" fill="rgb(113,20,242)"/></g></svg>